<svg width="420" height="148" viewBox="0 0 420 148" fill="none" xmlns="http://www.w3.org/2000/svg">
<mask id="mask0_460_1065" style="mask-type:luminance" maskUnits="userSpaceOnUse" x="0" y="0" width="420" height="105">
<path d="M420 0H0V104.041H212.757H420V0Z" fill="white"/>
</mask>
<g mask="url(#mask0_460_1065)">
<path d="M133.173 99.1689C135.436 99.1689 137.268 97.3355 137.268 95.0721C137.268 65.9667 137.268 36.079 137.268 6.97363C137.268 4.71061 135.434 2.87671 133.171 2.87671H110.634C108.371 2.87671 106.536 4.70856 106.536 6.97154C106.536 35.3041 106.536 66.7414 106.536 95.0741C106.536 97.3374 108.369 99.1689 110.632 99.1689C117.685 99.1689 126.119 99.1689 133.173 99.1689Z" fill="#EA094B"/>
<path d="M26.6341 99.1689C28.8972 99.1689 30.7317 97.3345 30.7317 95.0714V64.1759H45.0731L63.5121 97.1197C64.0037 97.9194 65.5608 99.1689 67.6096 99.1689H94.2436C96.3747 99.1689 97.3988 96.8541 96.2922 95.0714L69.6583 49.855L96.2922 6.97425C97.5416 5.19182 96.436 2.87671 94.2436 2.87671H65.5608C63.5121 2.87671 61.955 4.18792 61.4633 4.92548L43.0243 37.5624H30.7317C30.7317 27.399 30.5597 17.2192 30.6696 7.05339C30.6943 4.75966 28.8484 2.87671 26.5545 2.87671H4.09765C1.83465 2.87671 0.000120766 4.71122 0.000102292 6.97421C-0.000137443 36.34 0.000119381 65.7056 0.000119381 95.0714C0.000119381 97.3345 1.83465 99.1689 4.09767 99.1689C11.6098 99.1689 19.122 99.1689 26.6341 99.1689Z" fill="#EA094B"/>
<path d="M415.901 99.1689C418.164 99.1689 419.998 97.3345 419.998 95.0714C419.999 65.7055 420.002 36.3396 419.998 6.97371C419.998 4.71092 418.164 2.87673 415.901 2.87673H393.364C391.101 2.87673 389.267 4.71119 389.267 6.97416C389.266 21.9985 389.267 37.0229 389.267 52.0472L350.34 2.87672C341.462 2.87672 332.584 2.8767 323.706 2.87672C321.443 2.87672 319.608 4.71124 319.608 6.97425C319.608 36.34 319.607 65.7057 319.608 95.0715C319.608 97.3345 321.443 99.1689 323.706 99.1689H346.242C348.505 99.1689 350.34 97.3345 350.34 95.0713C350.339 79.9992 350.34 64.9271 350.34 49.855L389.267 99.1689H415.901Z" fill="#EA094B"/>
<path d="M149.56 95.0713C149.56 97.3345 151.395 99.1689 153.658 99.1689C203.511 99.1689 253.365 99.1689 303.219 99.1689C305.482 99.1689 307.316 97.3345 307.316 95.0714C307.315 65.7057 307.314 36.3401 307.315 6.97446C307.316 4.71137 305.481 2.87671 303.218 2.87671H153.658C151.395 2.87671 149.56 4.71121 149.56 6.9742C149.56 36.3399 149.561 65.7056 149.56 95.0713ZM182.34 27.462C191.602 29.2649 210.922 29.5312 228.991 29.4902C247.718 29.4493 266.463 29.06 274.535 27.462C275.335 27.2981 276.584 27.4414 276.584 29.4902V70.4042C276.584 72.535 275.294 72.5349 274.535 72.453C266.546 71.4695 247.656 70.5476 228.991 70.4862C210.327 70.4247 190.208 71.3876 182.34 72.535C181.563 72.6374 180.292 72.6168 180.292 70.4862V29.5107C180.292 27.462 181.563 27.3185 182.34 27.462Z" fill="#EA094B"/>
</g>
<mask id="mask1_460_1065" style="mask-type:luminance" maskUnits="userSpaceOnUse" x="0" y="116" width="420" height="32">
<path d="M420 147.192V116.986H210H0V147.192H420Z" fill="white"/>
</mask>
<g mask="url(#mask1_460_1065)">
<path d="M11.2644 120.843C18.5145 120.843 22.5288 123.117 22.5288 130.141C22.5288 137.166 18.5145 139.644 11.2644 139.644C4.01422 139.644 0 137.351 0 130.141C0 122.932 4.01422 120.843 11.2644 120.843ZM17.5725 129.26C17.5725 125.8 15.4425 124.632 11.2644 124.632C7.08633 124.632 4.91537 125.82 4.91537 129.26V131.166C4.91537 134.81 7.06585 135.876 11.2644 135.876C15.4629 135.876 17.5725 134.831 17.5725 131.166V129.26ZM30.332 121.211V128.052H39.9579V121.211H44.8323V139.296H39.9579V132.005H30.332V139.296H25.4576V121.211H30.332ZM47.8225 134.995C50.1573 134.995 50.5259 133.151 50.5259 128.708V121.211H67.4225V139.296H62.5481V125.165H55.0726V128.708C55.0726 136.511 53.8643 139.296 48.6007 139.296H47.1876V134.995H47.8225ZM83.9095 121.211L91.6921 139.296H86.6334L84.9131 135.261H75.6557L73.9559 139.296H69.3682L77.2123 121.211H83.93H83.9095ZM77.1714 131.718H83.3975L80.2844 124.406L77.1714 131.718ZM98.9014 139.296H93.6583V121.211H98.5332V133.315L108.261 121.211H113.505V139.296H108.629V127.192L98.9014 139.296ZM101.359 115.764C101.441 117.197 102.117 117.709 103.51 117.709C104.902 117.709 105.598 117.218 105.681 115.764H109.592C109.511 118.795 107.605 120.331 103.51 120.331C99.4134 120.331 97.5292 118.816 97.4477 115.764H101.359ZM122.106 121.211V128.052H131.732V121.211H136.606V139.296H131.732V132.005H122.106V139.296H117.232V121.211H122.106ZM149.448 127.991V132.026H139.944V127.991H149.448ZM172.12 121.211L163.886 129.834L172.611 139.296H166.426L159.647 132.005H157.681V139.296H152.806V121.211H157.681V128.052H159.811L166.385 121.211H172.12ZM179.616 139.296H174.373V121.211H179.247V133.315L188.976 121.211H194.218V139.296H189.344V127.192L179.616 139.296ZM202.821 121.211V128.052H212.446V121.211H217.321V139.296H212.446V132.005H202.821V139.296H197.947V121.211H202.821ZM231.514 120.843C238.764 120.843 242.778 123.117 242.778 130.141C242.778 137.166 238.764 139.644 231.514 139.644C224.264 139.644 220.25 137.33 220.25 130.141C220.25 122.953 224.264 120.843 231.514 120.843ZM237.822 129.26C237.822 125.8 235.692 124.632 231.514 124.632C227.336 124.632 225.165 125.82 225.165 129.26V131.166C225.165 134.81 227.316 135.876 231.514 135.876C235.713 135.876 237.822 134.831 237.822 131.166V129.26ZM244.335 125.165V121.211H263.853V125.165H256.521V139.296H251.646V125.165H244.335ZM282.674 124.96H271.062V128.257H279.89V131.841H271.062V135.528H282.757V139.276H266.188V121.191H282.674V124.96ZM298.486 121.211L306.268 139.296H301.21L299.49 135.261H290.232L288.532 139.296H283.945L291.789 121.211H298.507H298.486ZM291.748 131.718H297.974L294.861 124.406L291.748 131.718ZM303.852 125.165V121.211H323.37V125.165H316.038V139.296H311.163V125.165H303.852ZM338.034 121.211C342.52 121.211 344.568 123.485 344.568 127.376C344.568 131.267 342.52 133.643 338.034 133.643H330.599V139.296H325.725V121.211H338.034ZM339.631 127.049C339.631 125.861 338.956 124.98 337.359 124.98H330.599V129.855H337.359C338.956 129.855 339.631 129.015 339.631 127.765V127.049ZM356.979 125.328V139.296H352.514V121.211H360.194L364.68 134.709L369.186 121.211H376.599V139.296H371.725V125.266L367.015 139.296H361.689L356.979 125.328ZM378.955 125.165V121.211H398.473V125.165H391.141V139.296H386.267V125.165H378.955ZM409.778 120.843C415.84 120.843 419.466 122.563 419.978 127.479H415.042C414.612 125.165 412.85 124.632 409.778 124.632C406.502 124.632 404.187 125.472 404.187 129.24V131.308C404.187 134.974 406.419 135.896 409.798 135.896C412.707 135.896 414.551 135.364 415.063 133.214H419.998C419.425 137.883 415.799 139.664 409.778 139.664C403.184 139.664 399.271 137.392 399.271 130.284C399.271 123.178 403.184 120.843 409.778 120.843Z" fill="#040518"/>
</g>
</svg>
