<svg width="665" height="370" viewBox="0 0 665 370" fill="none" xmlns="http://www.w3.org/2000/svg">
<g clip-path="url(#clip0_317_4140)">
<rect width="665" height="370" rx="10" fill="#FEFEFE"/>
<g clip-path="url(#clip1_317_4140)">
<rect width="665" height="370" rx="10" fill="#FEFEFE"/>
<g clip-path="url(#clip2_317_4140)">
<rect width="644" height="490.79" transform="translate(11 -60)" fill="#FEFEFE"/>
<rect x="143.346" y="-4.27635" width="378.922" height="378.922" stroke="black" stroke-width="1.39309"/>
<rect x="164.241" y="16.6201" width="337.129" height="337.129" stroke="black" stroke-width="1.39309"/>
<rect x="185.136" y="37.5166" width="295.336" height="295.336" stroke="black" stroke-width="1.39309"/>
<rect x="206.034" y="58.4129" width="253.543" height="253.543" stroke="black" stroke-width="1.39309"/>
<rect x="226.93" y="79.3089" width="211.75" height="211.75" stroke="black" stroke-width="1.39309"/>
<rect x="247.827" y="100.205" width="169.957" height="169.957" stroke="black" stroke-width="1.39309"/>
<rect x="268.722" y="121.102" width="128.165" height="128.165" stroke="black" stroke-width="1.39309"/>
<rect x="289.62" y="141.999" width="86.3718" height="86.3718" stroke="black" stroke-width="1.39309"/>
<rect x="310.515" y="162.895" width="44.579" height="44.579" stroke="black" stroke-width="1.39309"/>
<rect x="122.448" y="-25.1733" width="420.714" height="420.714" stroke="black" stroke-width="1.39309"/>
<rect x="101.553" y="-45.3725" width="462.507" height="462.507" stroke="black" stroke-width="1.39309"/>
<rect x="80.655" y="-66.2688" width="504.3" height="502.907" stroke="black" stroke-width="1.39309"/>
<rect x="59.7591" y="-87.8616" width="546.093" height="546.093" stroke="black" stroke-width="1.39309"/>
<rect x="38.8613" y="-108.759" width="587.886" height="587.886" stroke="black" stroke-width="1.39309"/>
<rect x="17.9653" y="-129.655" width="629.679" height="629.679" stroke="black" stroke-width="1.39309"/>
<g filter="url(#filter0_f_317_4140)">
<circle cx="330.715" cy="183.095" r="208.964" fill="#FEFEFE"/>
</g>
<rect x="158.5" y="73.5" width="349" height="219" rx="14.5" fill="#FEFEFE" stroke="#222226"/>
<rect x="164.5" y="79.5" width="337" height="207" rx="9.5" fill="#FEFEFE" stroke="#222226"/>
<path d="M476.535 93H489.002V105" stroke="#222226"/>
<path d="M476.535 277H489.002V265" stroke="#222226"/>
<path d="M185.466 93H173V105" stroke="#222226"/>
<path d="M185.466 277H173V265" stroke="#222226"/>
<rect x="324.5" y="-0.5" width="18" height="74" stroke="black"/>
<rect x="324.5" y="292.5" width="18" height="77" stroke="black"/>
<path d="M321.125 232.291L251 230.13V149.75C253.802 146.063 258.682 145.879 260.771 146.247M260.771 146.247V134.264C284.959 130.282 312.022 145.51 322.531 153.622M260.771 146.247V218.516C296.463 216.008 316.816 227.549 322.531 233.633M322.531 153.622C353.503 130.761 376.978 130.454 384.844 133.158V154M322.531 153.622V233.633M384.844 154L375.257 154.478M384.844 154L393.324 153.622M341.52 225.521V157.493L357.19 156.093M341.52 225.521H416V182.013H345.391V174.638L349.816 174.246M341.52 225.521L322.531 233.633M357.19 156.093L349.816 174.246M357.19 156.093L375.257 154.478M349.816 174.246L370.464 172.413M370.464 172.413L375.257 154.478M370.464 172.413L384.844 171.136M393.324 153.622L384.844 171.136M393.324 153.622H404.662M384.844 171.136L400.422 169.753M400.422 169.753L416 168.37V153.622H404.662M400.422 169.753L404.662 153.622M277.547 160.259C287.727 158.41 302.598 165.876 308.888 169.476M277.547 169.476C287.872 167.264 302.743 174.7 308.888 178.694M277.547 178.694C287.872 176.482 302.743 183.918 308.888 187.912M370.464 192.152V215.381L391.48 204.136L370.464 192.152Z" stroke="black" stroke-width="3"/>
<path d="M192.985 225.822V232.5L187.162 235.841L181.34 232.5V225.822L187.162 222.481L192.985 225.822Z" stroke="#45454D" stroke-width="1.13514"/>
<ellipse cx="187.163" cy="229.162" rx="2.45946" ry="2.44491" fill="#45454D"/>
<rect x="185.886" y="221.783" width="2.55405" height="2.53222" fill="#FEFEFE" stroke="#45454D" stroke-width="1.13514"/>
<rect x="185.886" y="234.008" width="2.55405" height="2.53222" fill="#FEFEFE" stroke="#45454D" stroke-width="1.13514"/>
<rect x="191.419" y="224.84" width="2.55405" height="2.53222" fill="#FEFEFE" stroke="#45454D" stroke-width="1.13514"/>
<rect x="180.352" y="224.84" width="2.55405" height="2.53222" fill="#FEFEFE" stroke="#45454D" stroke-width="1.13514"/>
<rect x="191.419" y="230.952" width="2.55405" height="2.53222" fill="#FEFEFE" stroke="#45454D" stroke-width="1.13514"/>
<rect x="180.352" y="230.952" width="2.55405" height="2.53222" fill="#FEFEFE" stroke="#45454D" stroke-width="1.13514"/>
<g filter="url(#filter1_i_317_4140)">
<path d="M215 109.162L224.081 93.4332L242.243 93.4332L251.324 109.162L242.243 124.891L224.081 124.891L215 109.162Z" fill="#FEFEFE"/>
</g>
<path d="M224.407 94.001L241.916 94.001L250.668 109.162L241.916 124.323L224.407 124.323L215.655 109.162L224.407 94.001Z" stroke="#222226" stroke-width="1.13514"/>
<circle cx="237.135" cy="113.135" r="3.40541" stroke="#45454D" stroke-width="1.13514"/>
<rect x="225.783" y="101.784" width="6.81081" height="6.81081" stroke="#45454D" stroke-width="1.13514"/>
<rect x="229.756" y="105.757" width="6.81081" height="6.81081" fill="#45454D" stroke="#45454D" stroke-width="1.13514"/>
<line x1="250.21" y1="108.546" x2="289.21" y2="126.546" stroke="black"/>
<line x1="289.5" y1="126" x2="289.5" y2="137" stroke="black"/>
<line x1="203" y1="227.5" x2="241" y2="227.5" stroke="black"/>
<line x1="240.5" y1="228" x2="240.5" y2="208" stroke="black"/>
<line x1="240.975" y1="208" x2="251.025" y2="208" stroke="black"/>
<line x1="451.447" y1="135.224" x2="439.447" y2="159.224" stroke="black"/>
<line x1="439" y1="159.5" x2="418" y2="159.5" stroke="black"/>
<g filter="url(#filter2_i_317_4140)">
<path d="M440 120.162L449.081 104.433L467.243 104.433L476.324 120.162L467.243 135.891L449.081 135.891L440 120.162Z" fill="#FEFEFE"/>
</g>
<path d="M449.407 105.001L466.916 105.001L475.668 120.162L466.916 135.323L449.407 135.323L440.655 120.162L449.407 105.001Z" stroke="#222226" stroke-width="1.13514"/>
<path d="M459.016 116.736C459.016 117.242 459.627 117.495 459.985 117.138L462.779 114.343C463.001 114.121 463.36 114.121 463.582 114.343L463.983 114.744C464.205 114.966 464.205 115.325 463.983 115.547L461.189 118.342C460.831 118.699 461.084 119.311 461.59 119.311H465.542C465.855 119.311 466.109 119.565 466.109 119.878V120.446C466.109 120.76 465.855 121.014 465.542 121.014H461.591C461.085 121.014 460.832 121.625 461.19 121.983L463.983 124.776C464.205 124.998 464.205 125.357 463.983 125.579L463.582 125.981C463.36 126.202 463.001 126.202 462.779 125.981L459.985 123.186C459.627 122.828 459.016 123.081 459.016 123.587V127.54C459.016 127.853 458.762 128.107 458.448 128.107H457.88C457.567 128.107 457.312 127.853 457.312 127.54V123.588C457.312 123.082 456.701 122.829 456.344 123.187L453.549 125.981C453.327 126.203 452.968 126.203 452.746 125.981L452.345 125.58C452.123 125.358 452.123 124.999 452.345 124.777L455.14 121.983C455.497 121.625 455.244 121.014 454.738 121.014H450.785C450.472 121.014 450.218 120.76 450.218 120.446V119.878C450.218 119.565 450.472 119.311 450.785 119.311H454.738C455.244 119.311 455.497 118.699 455.14 118.342L452.345 115.547C452.123 115.325 452.123 114.966 452.345 114.744L452.746 114.343C452.968 114.121 453.327 114.121 453.549 114.343L456.344 117.137C456.701 117.494 457.312 117.241 457.312 116.735V112.783C457.312 112.47 457.567 112.216 457.88 112.216H458.448C458.762 112.216 459.016 112.47 459.016 112.783V116.736Z" fill="#45454D"/>
<g filter="url(#filter3_i_317_4140)">
<path d="M169 229.162L178.081 213.433L196.243 213.433L205.324 229.162L196.243 244.891L178.081 244.891L169 229.162Z" fill="#FEFEFE"/>
</g>
<path d="M178.407 214.001L195.916 214.001L204.668 229.162L195.916 244.323L178.407 244.323L169.655 229.162L178.407 214.001Z" stroke="#222226" stroke-width="1.13514"/>
<circle cx="187.029" cy="226.236" r="5.01989" fill="#FEFEFE" stroke="#45454D" stroke-width="1.13514"/>
<circle cx="187.029" cy="231.824" r="5.01989" fill="#FEFEFE" stroke="#45454D" stroke-width="1.13514"/>
<circle cx="184.236" cy="229.03" r="5.01989" transform="rotate(-90 184.236 229.03)" fill="#FEFEFE" stroke="#45454D" stroke-width="1.13514"/>
<circle cx="189.821" cy="229.029" r="5.01989" transform="rotate(-90 189.821 229.029)" fill="#FEFEFE" stroke="#45454D" stroke-width="1.13514"/>
<circle cx="187.029" cy="226.236" r="5.01989" stroke="#45454D" stroke-width="1.13514"/>
<circle cx="187.029" cy="231.824" r="5.01989" stroke="#45454D" stroke-width="1.13514"/>
<circle cx="184.236" cy="229.03" r="5.01989" transform="rotate(-90 184.236 229.03)" stroke="#45454D" stroke-width="1.13514"/>
<circle cx="189.821" cy="229.029" r="5.01989" transform="rotate(-90 189.821 229.029)" stroke="#45454D" stroke-width="1.13514"/>
</g>
</g>
<rect x="1" y="1" width="663" height="368" rx="9" stroke="#151517" stroke-width="2"/>
</g>
<rect x="1" y="1" width="663" height="368" rx="9" stroke="#151517" stroke-width="2"/>
<defs>
<filter id="filter0_f_317_4140" x="31.1302" y="-116.49" width="599.17" height="599.17" filterUnits="userSpaceOnUse" color-interpolation-filters="sRGB">
<feFlood flood-opacity="0" result="BackgroundImageFix"/>
<feBlend mode="normal" in="SourceGraphic" in2="BackgroundImageFix" result="shape"/>
<feGaussianBlur stdDeviation="45.3104" result="effect1_foregroundBlur_317_4140"/>
</filter>
<filter id="filter1_i_317_4140" x="215" y="93.4331" width="36.3243" height="31.4578" filterUnits="userSpaceOnUse" color-interpolation-filters="sRGB">
<feFlood flood-opacity="0" result="BackgroundImageFix"/>
<feBlend mode="normal" in="SourceGraphic" in2="BackgroundImageFix" result="shape"/>
<feColorMatrix in="SourceAlpha" type="matrix" values="0 0 0 0 0 0 0 0 0 0 0 0 0 0 0 0 0 0 127 0" result="hardAlpha"/>
<feOffset/>
<feGaussianBlur stdDeviation="2.83784"/>
<feComposite in2="hardAlpha" operator="arithmetic" k2="-1" k3="1"/>
<feColorMatrix type="matrix" values="0 0 0 0 1 0 0 0 0 1 0 0 0 0 1 0 0 0 0.15 0"/>
<feBlend mode="normal" in2="shape" result="effect1_innerShadow_317_4140"/>
</filter>
<filter id="filter2_i_317_4140" x="440" y="104.433" width="36.3243" height="31.4578" filterUnits="userSpaceOnUse" color-interpolation-filters="sRGB">
<feFlood flood-opacity="0" result="BackgroundImageFix"/>
<feBlend mode="normal" in="SourceGraphic" in2="BackgroundImageFix" result="shape"/>
<feColorMatrix in="SourceAlpha" type="matrix" values="0 0 0 0 0 0 0 0 0 0 0 0 0 0 0 0 0 0 127 0" result="hardAlpha"/>
<feOffset/>
<feGaussianBlur stdDeviation="2.83784"/>
<feComposite in2="hardAlpha" operator="arithmetic" k2="-1" k3="1"/>
<feColorMatrix type="matrix" values="0 0 0 0 1 0 0 0 0 1 0 0 0 0 1 0 0 0 0.15 0"/>
<feBlend mode="normal" in2="shape" result="effect1_innerShadow_317_4140"/>
</filter>
<filter id="filter3_i_317_4140" x="169" y="213.433" width="36.3243" height="31.4578" filterUnits="userSpaceOnUse" color-interpolation-filters="sRGB">
<feFlood flood-opacity="0" result="BackgroundImageFix"/>
<feBlend mode="normal" in="SourceGraphic" in2="BackgroundImageFix" result="shape"/>
<feColorMatrix in="SourceAlpha" type="matrix" values="0 0 0 0 0 0 0 0 0 0 0 0 0 0 0 0 0 0 127 0" result="hardAlpha"/>
<feOffset/>
<feGaussianBlur stdDeviation="2.83784"/>
<feComposite in2="hardAlpha" operator="arithmetic" k2="-1" k3="1"/>
<feColorMatrix type="matrix" values="0 0 0 0 1 0 0 0 0 1 0 0 0 0 1 0 0 0 0.15 0"/>
<feBlend mode="normal" in2="shape" result="effect1_innerShadow_317_4140"/>
</filter>
<clipPath id="clip0_317_4140">
<rect width="665" height="370" rx="10" fill="white"/>
</clipPath>
<clipPath id="clip1_317_4140">
<rect width="665" height="370" rx="10" fill="white"/>
</clipPath>
<clipPath id="clip2_317_4140">
<rect width="644" height="490.79" fill="white" transform="translate(11 -60)"/>
</clipPath>
</defs>
</svg>
