<svg width="24" height="25" viewBox="0 0 24 25" fill="none" xmlns="http://www.w3.org/2000/svg">
<rect x="0.5" y="1" width="23" height="23" rx="4.5" stroke="#222226"/>
<path fill-rule="evenodd" clip-rule="evenodd" d="M15.757 6.5821C15.9045 6.5094 16.066 6.48433 16.2247 6.50949C16.3833 6.53465 16.5333 6.60912 16.659 6.72515C16.7847 6.84118 16.8815 6.99452 16.9394 7.16922C16.9973 7.34393 17.0141 7.5336 16.9881 7.7185L15.634 17.3332C15.5027 18.2606 14.6334 18.7925 13.9067 18.3305C13.2989 17.944 12.3962 17.3486 11.5842 16.7272C11.1782 16.4162 9.93456 15.4203 10.0874 14.7116C10.2188 14.1057 12.3084 11.8287 13.5025 10.4749C13.9712 9.94308 13.7575 9.63626 13.204 10.1255C11.8296 11.3402 9.6229 13.1873 8.8933 13.7073C8.24968 14.1658 7.91414 14.2441 7.51292 14.1658C6.78094 14.0232 6.10209 13.8024 5.54803 13.5333C4.79932 13.1699 4.83574 11.965 5.54743 11.6141L15.757 6.5821Z" fill="#AFAFB3"/>
</svg>
