<svg width="24" height="25" viewBox="0 0 24 25" fill="none" xmlns="http://www.w3.org/2000/svg">
<rect x="0.5" y="1" width="23" height="23" rx="4.5" stroke="#222226"/>
<path d="M12 6.5C15.3138 6.5 18 9.1862 18 12.5C18 15.8138 15.3138 18.5 12 18.5C10.9397 18.5018 9.89796 18.2212 8.98201 17.687L6.00241 18.5L6.81361 15.5192C6.27898 14.603 5.99815 13.5608 6.00001 12.5C6.00001 9.1862 8.68621 6.5 12 6.5ZM9.95521 9.68L9.83521 9.6848C9.75762 9.69014 9.68181 9.71052 9.61201 9.7448C9.54695 9.7817 9.48754 9.82778 9.43561 9.8816C9.36361 9.9494 9.32281 10.0082 9.27901 10.0652C9.05708 10.3537 8.93759 10.708 8.93941 11.072C8.94061 11.366 9.01741 11.6522 9.13741 11.9198C9.38281 12.461 9.78661 13.034 10.3194 13.565C10.4478 13.6928 10.5738 13.8212 10.7094 13.9406C11.3715 14.5234 12.1604 14.9438 13.0134 15.1682L13.3542 15.2204C13.4652 15.2264 13.5762 15.218 13.6878 15.2126C13.8625 15.2034 14.0331 15.1561 14.1876 15.074C14.2661 15.0334 14.3428 14.9894 14.4174 14.942C14.4174 14.942 14.4428 14.9248 14.4924 14.888C14.5734 14.828 14.6232 14.7854 14.6904 14.7152C14.7408 14.6632 14.7828 14.6028 14.8164 14.534C14.8632 14.4362 14.91 14.2496 14.9292 14.0942C14.9436 13.9754 14.9394 13.9106 14.9376 13.8704C14.9352 13.8062 14.8818 13.7396 14.8236 13.7114L14.4744 13.5548C14.4744 13.5548 13.9524 13.3274 13.6332 13.1822C13.5998 13.1676 13.564 13.1593 13.5276 13.1576C13.4865 13.1533 13.445 13.1579 13.4059 13.171C13.3668 13.1842 13.3309 13.2056 13.3008 13.2338C13.2978 13.2326 13.2576 13.2668 12.8238 13.7924C12.7989 13.8259 12.7646 13.8511 12.7253 13.865C12.686 13.8789 12.6434 13.8808 12.603 13.8704C12.5639 13.86 12.5256 13.8467 12.4884 13.8308C12.414 13.7996 12.3882 13.7876 12.3372 13.766C11.9927 13.6159 11.6739 13.4129 11.3922 13.1642C11.3166 13.0982 11.2464 13.0262 11.1744 12.9566C10.9384 12.7305 10.7327 12.4748 10.5624 12.1958L10.527 12.1388C10.502 12.1003 10.4814 12.059 10.4658 12.0158C10.443 11.9276 10.5024 11.8568 10.5024 11.8568C10.5024 11.8568 10.6482 11.6972 10.716 11.6108C10.782 11.5268 10.8378 11.4452 10.8738 11.387C10.9446 11.273 10.9668 11.156 10.9296 11.0654C10.7616 10.655 10.588 10.2468 10.4088 9.8408C10.3734 9.7604 10.2684 9.7028 10.173 9.6914C10.1406 9.6874 10.1082 9.6842 10.0758 9.6818C9.99524 9.67718 9.91446 9.67798 9.83401 9.6842L9.95521 9.68Z" fill="#AFAFB3"/>
</svg>
