<svg width="420" height="96" viewBox="0 0 420 96" fill="none" xmlns="http://www.w3.org/2000/svg">
<path d="M420 0H322.424V95.8835H420V0Z" fill="url(#paint0_linear_461_1099)"/>
<path d="M382.485 27.9187V8.5498L346.298 26.5846V45.9534L382.485 27.9187Z" fill="white"/>
<path d="M382.485 31.9683L364.43 40.9706V85.0279H382.485V31.9683Z" fill="white"/>
<path d="M314.746 0H0V95.7613H314.746V0Z" fill="url(#paint1_linear_461_1099)"/>
<path d="M30.4608 73.4513V22.7021H48.5717C53.5315 22.7022 57.5518 24.291 60.6326 27.4687C63.7133 30.6464 65.2537 34.4625 65.2537 38.9171C65.2537 43.3717 63.7259 47.1504 60.6704 50.2532C57.6148 53.3561 53.5819 54.9075 48.5717 54.9075H41.5081V73.4513H30.4608ZM41.5081 45.7501H48.1956C49.9492 45.7502 51.3646 45.1243 52.4418 43.8726C53.5189 42.621 54.0574 40.9691 54.0574 38.9171C54.0574 36.8651 53.5189 35.2136 52.4418 33.9627C51.3646 32.7118 49.9492 32.0863 48.1956 32.0863H41.5081V45.7501Z" fill="white"/>
<path d="M70.4529 53.4824V42.7465C70.4529 36.0399 72.3442 30.8598 76.1268 27.2063C79.9093 23.5529 84.7063 21.7261 90.5177 21.7261C96.3796 21.7261 101.202 23.5529 104.984 27.2063C108.767 30.8598 110.658 36.0399 110.658 42.7465V53.4824C110.658 60.2379 108.767 65.4176 104.984 69.0214C101.202 72.6253 96.3796 74.4272 90.5177 74.4272C84.7063 74.4272 79.9093 72.613 76.1268 68.9848C72.3442 65.3565 70.4529 60.1891 70.4529 53.4824ZM90.5177 65.043C96.5799 65.043 99.611 60.9138 99.611 52.6553V43.498C99.611 35.2395 96.5799 31.1103 90.5177 31.1102C84.506 31.1103 81.5001 35.2395 81.5002 43.498V52.6553C81.5001 60.9138 84.506 65.043 90.5177 65.043Z" fill="white"/>
<path d="M151.178 63.0154L153.281 72.0995C148.472 73.6513 143.588 74.4272 138.628 74.4272C132.415 74.4272 127.405 72.6379 123.598 69.0592C119.791 65.4806 117.887 60.3128 117.887 53.5557V42.5953C117.887 35.8398 119.791 30.6727 123.598 27.094C127.405 23.5154 132.415 21.7261 138.628 21.7261C143.588 21.7261 148.472 22.502 153.281 24.0538L151.178 33.0622C146.969 31.7609 142.81 31.1103 138.702 31.1102C132.19 31.1103 128.934 35.2395 128.934 43.498V52.5797C128.934 56.9846 129.773 60.1631 131.451 62.1151C133.129 64.067 135.546 65.043 138.702 65.043C143.111 65.043 147.27 64.3672 151.178 63.0154Z" fill="white"/>
<path d="M193.181 63.0154L195.284 72.0995C190.476 73.6513 185.592 74.4272 180.632 74.4272C174.418 74.4272 169.408 72.6379 165.601 69.0592C161.794 65.4806 159.89 60.3128 159.89 53.5557V42.5953C159.89 35.8398 161.794 30.6727 165.601 27.094C169.408 23.5154 174.418 21.7261 180.632 21.7261C185.592 21.7261 190.476 22.502 195.284 24.0538L193.181 33.0622C188.972 31.7609 184.813 31.1103 180.705 31.1102C174.193 31.1103 170.938 35.2395 170.938 43.498V52.5797C170.938 56.9846 171.777 60.1631 173.455 62.1151C175.133 64.067 177.549 65.043 180.705 65.043C185.115 65.043 189.273 64.3672 193.181 63.0154Z" fill="white"/>
<path d="M241.647 22.7021V73.4513H230.6V51.8306C230.6 49.1272 230.7 46.4741 230.9 43.8715L212.189 73.4513H203.171V22.7021H214.218V44.6986C214.218 47.0003 214.143 49.5778 213.991 52.4309L232.705 22.7021H241.647Z" fill="white"/>
<path d="M284.176 22.7021V73.4513H273.129V54.9075H268.92L260.804 73.4513H248.479L257.949 53.3312C255.143 52.0803 252.964 50.1536 251.41 47.5509C249.857 44.9483 249.08 42.0707 249.08 38.9182C249.08 34.4629 250.621 30.6464 253.703 27.4687C256.784 24.291 260.805 22.7022 265.765 22.7021H284.176ZM266.29 45.7501H273.129V32.0863H266.29C264.536 32.0863 263.083 32.7244 261.931 34.0005C260.779 35.2766 260.203 36.9159 260.203 38.9182C260.203 40.9695 260.767 42.621 261.893 43.8726C263.02 45.1243 264.486 45.7502 266.29 45.7501Z" fill="white"/>
<defs>
<linearGradient id="paint0_linear_461_1099" x1="371.212" y1="2.30027" x2="371.212" y2="93.9104" gradientUnits="userSpaceOnUse">
<stop stop-color="#E41E26"/>
<stop offset="1" stop-color="#BC2025"/>
</linearGradient>
<linearGradient id="paint1_linear_461_1099" x1="157.373" y1="-51.5047" x2="157.373" y2="150.223" gradientUnits="userSpaceOnUse">
<stop stop-color="#5481C1"/>
<stop offset="0.1863" stop-color="#4C75B8"/>
<stop offset="0.5473" stop-color="#375CA5"/>
<stop offset="1" stop-color="#1E398D"/>
</linearGradient>
</defs>
</svg>
