<svg width="420" height="63" viewBox="0 0 420 63" fill="none" xmlns="http://www.w3.org/2000/svg">
<g clip-path="url(#clip0_461_1091)">
<path d="M187.49 1.06349H115.1V15.4641H141.543V61.9366H160.96V15.4641H187.483V1.06349H187.49ZM347.618 1.06349V15.4641H374.061V61.9366H393.477V15.4641H420V1.06349H347.611H347.618ZM95.677 24.3934C91.9817 23.8315 87.7118 23.4971 82.8275 23.3967L72.4977 23.2362C59.8574 23.0757 58.2834 20.534 58.2834 17.999C58.2834 15.4641 59.3573 12.7619 74.2338 12.7619H75.5578C91.59 12.7619 92.9948 17.6713 93.3261 20.0458H113.324V19.2297C113.324 12.394 109.642 5.0499 95.6841 1.76579C90.9411 0.648796 85.0096 0 77.6253 0H71.9234C66.3024 0 61.6002 0.387939 57.6549 1.07018V0H52.6961C28.8072 0 21.3013 6.94277 19.6259 14.6347V1.14375C4.30351 3.9329 0.82422 11.3773 0.82422 18.5742V19.31C0.82422 27.042 5.48581 33.5768 19.6259 36.085V23.0088C21.3959 30.7342 29.3206 36.58 49.2234 37.1418L57.6549 37.3358V36.1452C60.783 36.6803 64.3636 37.0214 68.4507 37.1351L79.0306 37.3826C93.2449 37.7104 95.1436 39.998 95.1436 43.5162C95.1436 46.7867 93.3261 49.9773 77.1252 49.9773H75.97C60.1074 49.9773 57.9521 43.9241 57.7091 40.3256H57.2561V49.9773H56.7497C40.8868 49.9773 38.7316 43.9241 38.4884 40.3256H0V41.2287C0 47.6162 2.35781 57.6424 19.6259 61.4551V48.3989C22.335 55.5357 30.5975 63 54.3443 63H57.6482V61.5484C61.972 62.465 67.2146 63 73.5716 63H79.2739C85.8406 63 91.2387 62.5319 95.677 61.7023C112.121 58.6255 115.303 50.5525 115.303 42.6264V41.4827C115.303 31.9314 109.486 26.507 95.677 24.4V24.3934ZM57.2494 23.2964L53.2703 23.2362C40.6301 23.0757 39.0559 20.534 39.0559 17.999C39.0559 15.4641 40.13 12.7619 55.0065 12.7619H56.3309C56.6481 12.7619 56.9523 12.7619 57.2494 12.7685V23.2964ZM331.276 32.3795V30.3663C337.897 30.3663 343.484 25.5104 343.484 17.4305V16.8553C343.484 8.09992 337.289 1.06349 316.791 1.06349H267.209V61.9299H286.464V40.3323H311.582C321.088 40.3323 324.392 43.6032 324.392 51.0474V61.9299H343.727V45.9709C343.727 38.5398 337.559 32.3795 331.269 32.3795H331.276ZM323.405 20.8618C323.405 24.2128 321.094 26.8347 315.636 26.8347H286.464V14.8888H315.636C321.257 14.8888 323.405 17.591 323.405 20.7815V20.8618ZM206.474 1.06349L175.404 61.9299H194.989L200.529 50.8002H237.801L243.584 61.9299H264.325L231.43 1.06349H206.474ZM207.386 37.0616L218.175 15.4641H219.425L230.687 37.0616H207.386Z" fill="#FD0118"/>
</g>
<defs>
<clipPath id="clip0_461_1091">
<rect width="420" height="63" fill="white"/>
</clipPath>
</defs>
</svg>
