<svg width="30" height="30" viewBox="0 0 30 30" fill="none" xmlns="http://www.w3.org/2000/svg">
<rect x="0.5" y="0.5" width="29" height="29" rx="4.5" stroke="#222226"/>
<path d="M21.6666 14.9762C21.6666 13.1242 21.0197 11.5532 19.7261 10.2631C18.4324 8.97308 16.857 8.32804 14.9999 8.32804V6.42856C16.1904 6.42856 17.3055 6.65412 18.3451 7.10525C19.3848 7.55638 20.2896 8.1658 21.0594 8.9335C21.8293 9.70121 22.4404 10.6035 22.8928 11.6403C23.3451 12.6771 23.5713 13.7891 23.5713 14.9762H21.6666ZM17.857 14.9762C17.857 14.1848 17.5793 13.5121 17.0237 12.958C16.4681 12.404 15.7935 12.127 14.9999 12.127V10.2275C16.3174 10.2275 17.4404 10.6905 18.3689 11.6165C19.2975 12.5425 19.7618 13.6624 19.7618 14.9762H17.857ZM22.5713 23.5714C20.5872 23.5714 18.6269 23.1401 16.6904 22.2774C14.7539 21.4147 12.992 20.1919 11.4047 18.609C9.81736 17.0261 8.59117 15.2691 7.72609 13.3379C6.86101 11.4068 6.42847 9.45191 6.42847 7.47328C6.42847 7.18835 6.5237 6.95092 6.71418 6.76097C6.90466 6.57102 7.14275 6.47605 7.42847 6.47605H11.2856C11.5078 6.47605 11.7062 6.55123 11.8808 6.70161C12.0555 6.85199 12.1586 7.03006 12.1904 7.23584L12.8094 10.5599C12.8412 10.8132 12.8332 11.0269 12.7856 11.201C12.738 11.3751 12.6507 11.5255 12.5237 11.6521L10.2142 13.979C10.5316 14.5647 10.9086 15.1306 11.3451 15.6767C11.7816 16.2228 12.2618 16.7491 12.7856 17.2556C13.2777 17.7463 13.7935 18.2014 14.3332 18.6209C14.8729 19.0404 15.4443 19.4242 16.0475 19.7724L18.2856 17.5405C18.4285 17.3981 18.615 17.2912 18.8451 17.22C19.0753 17.1488 19.3015 17.129 19.5237 17.1607L22.8094 17.8255C23.0316 17.8888 23.2142 18.0035 23.357 18.1698C23.4999 18.336 23.5713 18.5219 23.5713 18.7277V22.5742C23.5713 22.8591 23.4761 23.0965 23.2856 23.2865C23.0951 23.4764 22.857 23.5714 22.5713 23.5714Z" fill="#AFAFB3"/>
</svg>
